<svg width="960" height="300" viewBox="0 0 960 300" xmlns="http://www.w3.org/2000/svg">
  <rect width="960" height="300" fill="#1a1d22"/>
  <style>.lbl{ font-family:'Helvetica Neue',Arial,sans-serif; font-size:18px; fill:#9aa7b4; }</style>

  <!-- four icons, increasing letter-spacing -->
  <!-- spacing -40 (current) -->
  <svg x="20" y="20" width="200" height="200" viewBox="0 0 1024 1024">
    <rect x="32" y="32" width="960" height="960" rx="224" fill="#0e1217"/><rect x="33.5" y="33.5" width="957" height="957" rx="222.5" fill="none" stroke="#2a333d" stroke-width="3"/>
    <text x="512" y="600" font-family="Inter,'Helvetica Neue',Arial,sans-serif" font-size="500" text-anchor="middle" letter-spacing="-40"><tspan fill="#5fd7ff" font-weight="800">d</tspan><tspan fill="#e6edf3" font-weight="500">r</tspan></text>
    <line x1="300" y1="772" x2="724" y2="772" stroke="#33404d" stroke-width="14" stroke-linecap="round"/><line x1="300" y1="772" x2="512" y2="772" stroke="#5fd7ff" stroke-width="14" stroke-linecap="round"/>
    <circle cx="300" cy="772" r="42" fill="#0a0e12" stroke="#5b6773" stroke-width="12"/><circle cx="512" cy="772" r="58" fill="#0a0e12" stroke="#5fd7ff" stroke-width="15"/><circle cx="512" cy="772" r="24" fill="#5fd7ff"/><circle cx="724" cy="772" r="42" fill="#0a0e12" stroke="#5b6773" stroke-width="12"/>
  </svg>
  <text x="120" y="252" class="lbl" text-anchor="middle">-40 · now</text>

  <!-- spacing 0 -->
  <svg x="250" y="20" width="200" height="200" viewBox="0 0 1024 1024">
    <rect x="32" y="32" width="960" height="960" rx="224" fill="#0e1217"/><rect x="33.5" y="33.5" width="957" height="957" rx="222.5" fill="none" stroke="#2a333d" stroke-width="3"/>
    <text x="512" y="600" font-family="Inter,'Helvetica Neue',Arial,sans-serif" font-size="500" text-anchor="middle" letter-spacing="0"><tspan fill="#5fd7ff" font-weight="800">d</tspan><tspan fill="#e6edf3" font-weight="500">r</tspan></text>
    <line x1="300" y1="772" x2="724" y2="772" stroke="#33404d" stroke-width="14" stroke-linecap="round"/><line x1="300" y1="772" x2="512" y2="772" stroke="#5fd7ff" stroke-width="14" stroke-linecap="round"/>
    <circle cx="300" cy="772" r="42" fill="#0a0e12" stroke="#5b6773" stroke-width="12"/><circle cx="512" cy="772" r="58" fill="#0a0e12" stroke="#5fd7ff" stroke-width="15"/><circle cx="512" cy="772" r="24" fill="#5fd7ff"/><circle cx="724" cy="772" r="42" fill="#0a0e12" stroke="#5b6773" stroke-width="12"/>
  </svg>
  <text x="350" y="252" class="lbl" text-anchor="middle">0</text>

  <!-- spacing +40 -->
  <svg x="480" y="20" width="200" height="200" viewBox="0 0 1024 1024">
    <rect x="32" y="32" width="960" height="960" rx="224" fill="#0e1217"/><rect x="33.5" y="33.5" width="957" height="957" rx="222.5" fill="none" stroke="#2a333d" stroke-width="3"/>
    <text x="512" y="600" font-family="Inter,'Helvetica Neue',Arial,sans-serif" font-size="500" text-anchor="middle" letter-spacing="40"><tspan fill="#5fd7ff" font-weight="800">d</tspan><tspan fill="#e6edf3" font-weight="500">r</tspan></text>
    <line x1="300" y1="772" x2="724" y2="772" stroke="#33404d" stroke-width="14" stroke-linecap="round"/><line x1="300" y1="772" x2="512" y2="772" stroke="#5fd7ff" stroke-width="14" stroke-linecap="round"/>
    <circle cx="300" cy="772" r="42" fill="#0a0e12" stroke="#5b6773" stroke-width="12"/><circle cx="512" cy="772" r="58" fill="#0a0e12" stroke="#5fd7ff" stroke-width="15"/><circle cx="512" cy="772" r="24" fill="#5fd7ff"/><circle cx="724" cy="772" r="42" fill="#0a0e12" stroke="#5b6773" stroke-width="12"/>
  </svg>
  <text x="580" y="252" class="lbl" text-anchor="middle">+40</text>

  <!-- spacing +90 -->
  <svg x="710" y="20" width="200" height="200" viewBox="0 0 1024 1024">
    <rect x="32" y="32" width="960" height="960" rx="224" fill="#0e1217"/><rect x="33.5" y="33.5" width="957" height="957" rx="222.5" fill="none" stroke="#2a333d" stroke-width="3"/>
    <text x="512" y="600" font-family="Inter,'Helvetica Neue',Arial,sans-serif" font-size="500" text-anchor="middle" letter-spacing="90"><tspan fill="#5fd7ff" font-weight="800">d</tspan><tspan fill="#e6edf3" font-weight="500">r</tspan></text>
    <line x1="300" y1="772" x2="724" y2="772" stroke="#33404d" stroke-width="14" stroke-linecap="round"/><line x1="300" y1="772" x2="512" y2="772" stroke="#5fd7ff" stroke-width="14" stroke-linecap="round"/>
    <circle cx="300" cy="772" r="42" fill="#0a0e12" stroke="#5b6773" stroke-width="12"/><circle cx="512" cy="772" r="58" fill="#0a0e12" stroke="#5fd7ff" stroke-width="15"/><circle cx="512" cy="772" r="24" fill="#5fd7ff"/><circle cx="724" cy="772" r="42" fill="#0a0e12" stroke="#5b6773" stroke-width="12"/>
  </svg>
  <text x="810" y="252" class="lbl" text-anchor="middle">+90</text>
</svg>
