<svg width="760" height="300" viewBox="0 0 760 300" xmlns="http://www.w3.org/2000/svg">
  <rect width="760" height="300" fill="#1a1d22"/>
  <style>.lbl{ font-family:'Helvetica Neue',Arial,sans-serif; font-size:18px; fill:#9aa7b4; }</style>

  <!-- S=90, x centered = 512 + 90/2 = 557 -->
  <svg x="20" y="20" width="200" height="200" viewBox="0 0 1024 1024">
    <rect x="32" y="32" width="960" height="960" rx="224" fill="#0e1217"/><rect x="33.5" y="33.5" width="957" height="957" rx="222.5" fill="none" stroke="#2a333d" stroke-width="3"/>
    <text x="557" y="600" font-family="Inter,'Helvetica Neue',Arial,sans-serif" font-size="500" text-anchor="middle" letter-spacing="90"><tspan fill="#5fd7ff" font-weight="800">d</tspan><tspan fill="#e6edf3" font-weight="500">r</tspan></text>
    <line x1="300" y1="772" x2="724" y2="772" stroke="#33404d" stroke-width="14" stroke-linecap="round"/><line x1="300" y1="772" x2="512" y2="772" stroke="#5fd7ff" stroke-width="14" stroke-linecap="round"/>
    <circle cx="300" cy="772" r="42" fill="#0a0e12" stroke="#5b6773" stroke-width="12"/><circle cx="512" cy="772" r="58" fill="#0a0e12" stroke="#5fd7ff" stroke-width="15"/><circle cx="512" cy="772" r="24" fill="#5fd7ff"/><circle cx="724" cy="772" r="42" fill="#0a0e12" stroke="#5b6773" stroke-width="12"/>
  </svg>
  <text x="120" y="252" class="lbl" text-anchor="middle">+90</text>

  <!-- S=150, x = 587 -->
  <svg x="270" y="20" width="200" height="200" viewBox="0 0 1024 1024">
    <rect x="32" y="32" width="960" height="960" rx="224" fill="#0e1217"/><rect x="33.5" y="33.5" width="957" height="957" rx="222.5" fill="none" stroke="#2a333d" stroke-width="3"/>
    <text x="587" y="600" font-family="Inter,'Helvetica Neue',Arial,sans-serif" font-size="500" text-anchor="middle" letter-spacing="150"><tspan fill="#5fd7ff" font-weight="800">d</tspan><tspan fill="#e6edf3" font-weight="500">r</tspan></text>
    <line x1="300" y1="772" x2="724" y2="772" stroke="#33404d" stroke-width="14" stroke-linecap="round"/><line x1="300" y1="772" x2="512" y2="772" stroke="#5fd7ff" stroke-width="14" stroke-linecap="round"/>
    <circle cx="300" cy="772" r="42" fill="#0a0e12" stroke="#5b6773" stroke-width="12"/><circle cx="512" cy="772" r="58" fill="#0a0e12" stroke="#5fd7ff" stroke-width="15"/><circle cx="512" cy="772" r="24" fill="#5fd7ff"/><circle cx="724" cy="772" r="42" fill="#0a0e12" stroke="#5b6773" stroke-width="12"/>
  </svg>
  <text x="370" y="252" class="lbl" text-anchor="middle">+150</text>

  <!-- S=210, x = 617 -->
  <svg x="520" y="20" width="200" height="200" viewBox="0 0 1024 1024">
    <rect x="32" y="32" width="960" height="960" rx="224" fill="#0e1217"/><rect x="33.5" y="33.5" width="957" height="957" rx="222.5" fill="none" stroke="#2a333d" stroke-width="3"/>
    <text x="617" y="600" font-family="Inter,'Helvetica Neue',Arial,sans-serif" font-size="500" text-anchor="middle" letter-spacing="210"><tspan fill="#5fd7ff" font-weight="800">d</tspan><tspan fill="#e6edf3" font-weight="500">r</tspan></text>
    <line x1="300" y1="772" x2="724" y2="772" stroke="#33404d" stroke-width="14" stroke-linecap="round"/><line x1="300" y1="772" x2="512" y2="772" stroke="#5fd7ff" stroke-width="14" stroke-linecap="round"/>
    <circle cx="300" cy="772" r="42" fill="#0a0e12" stroke="#5b6773" stroke-width="12"/><circle cx="512" cy="772" r="58" fill="#0a0e12" stroke="#5fd7ff" stroke-width="15"/><circle cx="512" cy="772" r="24" fill="#5fd7ff"/><circle cx="724" cy="772" r="42" fill="#0a0e12" stroke="#5b6773" stroke-width="12"/>
  </svg>
  <text x="620" y="252" class="lbl" text-anchor="middle">+210</text>
</svg>
